# Blender 5.0.1
# www.blender.org
o Cube
v 0.500000 -0.500000 0.500000
v -0.500000 -0.500000 0.500000
v -0.500000 0.500000 0.500000
v 0.500000 -0.500000 -0.500000
v -0.500000 -0.500000 -0.500000
v -0.500000 0.500000 -0.500000
vn 0.7071 0.7071 -0.0000
vn -1.0000 -0.0000 -0.0000
vn -0.0000 -0.0000 1.0000
vn -0.0000 -1.0000 -0.0000
vn -0.0000 -0.0000 -1.0000
vt 0.625000 0.500000
vt 0.625000 0.250000
vt 0.125000 0.750000
vt 0.375000 0.750000
vt 0.375000 0.250000
vt 0.375000 0.500000
vt 0.125000 0.500000
s 0
f 6/1/1 3/2/1 1/3/1 4/4/1
f 2/5/2 3/2/2 6/1/2 5/6/2
f 2/5/3 1/3/3 3/2/3
f 2/7/4 5/6/4 4/4/4 1/3/4
f 5/6/5 6/1/5 4/4/5
