# Blender 5.0.1
# www.blender.org
mtllib inverted_corner.mtl
o Cube
v 0.500000 0.500000 -0.500000
v 0.500000 -0.500000 -0.500000
v 0.500000 -0.500000 0.500000
v -0.500000 0.500000 -0.500000
v -0.500000 -0.500000 -0.500000
v -0.500000 0.500000 0.500000
v -0.500000 -0.500000 0.500000
vn -0.0000 -0.0000 -1.0000
vn 0.5774 0.5774 0.5774
vn -0.0000 1.0000 -0.0000
vn -1.0000 -0.0000 -0.0000
vn -0.0000 -0.0000 1.0000
vt 0.000000 0.000000
s 0
usemtl Material
f 6/1/1 3/1/1 7/1/1
f 1/1/2 6/1/2 3/1/2
f 6/1/3 1/1/3 4/1/3
f 3/1/4 1/1/4 2/1/4
f 1/1/1 5/1/1 4/1/1
f 1/1/5 5/1/5 2/1/5
f 3/1/3 2/1/3 7/1/3
f 2/1/3 5/1/3 7/1/3
f 6/1/4 4/1/4 7/1/4
f 5/1/4 7/1/4 4/1/4
