# Blender 4.5.6 LTS
# www.blender.org
mtllib slope.mtl
o Cube
v -1.000000 -1.000000 1.000000
v -1.000000 -1.000000 -1.000000
v -1.000000 1.000000 -1.000000
v 1.000000 -1.000000 1.000000
v 1.000000 -1.000000 -1.000000
v 1.000000 1.000000 -1.000000
vn 1.0000 -0.0000 -0.0000
vn -0.0000 -0.0000 -1.0000
vn -1.0000 -0.0000 -0.0000
vn -0.0000 0.7071 0.7071
vn -0.0000 -1.0000 -0.0000
vt 0.375000 0.500000
vt 0.625000 0.500000
vt 0.375000 0.750000
vt 0.375000 0.250000
vt 0.625000 0.250000
vt 0.125000 0.750000
vt 0.125000 0.500000
s 0
f 5/1/1 6/2/1 4/3/1
f 2/4/2 3/5/2 6/2/2 5/1/2
f 2/4/3 1/6/3 3/5/3
f 6/2/4 3/5/4 1/6/4 4/3/4
f 2/7/5 5/1/5 4/3/5 1/6/5
